<svg width="298" height="120" viewBox="0 0 298 120" fill="none" xmlns="http://www.w3.org/2000/svg">
<g clip-path="url(#clip0)">
<path d="M153.852 39.7467L168.029 38.753C168.353 41.2664 168.946 43.1368 169.916 44.4812C171.479 46.5855 173.636 47.6376 176.493 47.6376C178.595 47.6376 180.266 47.1115 181.398 46.0009C182.476 45.1242 183.123 43.7214 183.123 42.2601C183.123 40.8573 182.53 39.5129 181.506 38.6361C180.428 37.584 177.894 36.5319 173.905 35.5967C167.382 34.0185 162.692 31.9142 159.943 29.2255C157.194 26.7121 155.631 23.0297 155.738 19.1135C155.738 16.4247 156.493 13.736 157.895 11.5148C159.512 9.00142 161.722 7.01408 164.364 5.90351C167.221 4.55914 171.21 3.85773 176.223 3.85773C182.369 3.85773 187.059 5.0852 190.293 7.5986C193.528 10.0535 195.468 14.0282 196.061 19.4642L182.045 20.3409C181.668 18.0029 180.913 16.3078 179.673 15.1972C178.433 14.0867 176.816 13.5606 174.714 13.5606C172.989 13.5606 171.695 13.9698 170.832 14.7296C170.024 15.431 169.485 16.4832 169.539 17.6522C169.539 18.5289 169.97 19.3473 170.617 19.8733C171.318 20.5747 172.989 21.2177 175.63 21.8022C182.153 23.3219 186.789 24.8417 189.646 26.4198C192.503 27.998 194.552 29.9269 195.792 32.2065C197.085 34.5445 197.732 37.2333 197.678 39.9805C197.678 43.2537 196.816 46.527 195.091 49.2742C193.312 52.1383 190.832 54.3594 187.921 55.7038C184.848 57.1651 180.967 57.925 176.331 57.925C168.137 57.925 162.477 56.2299 159.296 52.7813C156.116 49.3327 154.229 45.0073 153.852 39.7467ZM3.39617 57.0482V4.79294H28.2475C32.8296 4.79294 36.3875 5.2021 38.8133 6.07887C41.1852 6.89718 43.2876 8.59226 44.6892 10.8719C46.2525 13.3853 47.0072 16.3078 46.9533 19.3473C47.1151 24.491 44.6892 29.4008 40.5383 31.9727C38.9211 32.9664 37.1422 33.6678 35.3093 34.0185C36.657 34.4276 38.0047 35.129 39.1907 35.9474C40.1071 36.7657 40.8618 37.7009 41.5626 38.6946C42.3712 39.6882 43.072 40.7988 43.665 41.9678L50.8886 57.1066H33.9617L25.9834 41.0326C24.9591 38.9868 24.0966 37.6424 23.288 36.9995C22.2098 36.1812 20.9161 35.772 19.6223 35.772H18.3285V56.9897H3.39617V57.0482ZM18.3285 25.9522H24.6357C25.9834 25.8353 27.2771 25.6015 28.5709 25.2508C29.5412 25.0755 30.4038 24.491 30.9967 23.6142C32.4522 21.5099 32.2366 18.5289 30.4577 16.717C29.4873 15.8402 27.6006 15.3726 24.9052 15.3726H18.3285V25.9522ZM0 101.822L14.1776 100.828C14.5011 103.341 15.0941 105.212 16.0644 106.556C17.5738 108.66 19.784 109.771 22.6411 109.771C24.7435 109.771 26.4146 109.245 27.5467 108.134C28.6248 107.199 29.2717 105.855 29.2717 104.394C29.2717 102.991 28.6787 101.646 27.6545 100.77C26.5763 99.7175 24.0427 98.6653 19.9996 97.7301C13.4768 96.1519 8.7869 94.0477 6.03763 91.359C3.28835 88.8456 1.72504 85.1632 1.83285 81.2469C1.83285 78.5582 2.58755 75.8694 3.98915 73.6483C5.60637 71.1349 7.81657 69.1476 10.458 68.037C13.3151 66.6926 17.3043 65.9912 22.3177 65.9912C28.4631 65.9912 33.153 67.2187 36.3875 69.7321C39.6219 72.2455 41.5087 76.1617 42.1017 81.5976L28.0857 82.4744C27.7084 80.1364 26.9537 78.4413 25.7138 77.3307C24.5279 76.2201 22.8567 75.6941 20.7543 75.7525C19.0293 75.7525 17.7355 76.1617 16.873 76.98C16.0105 77.6814 15.5253 78.7335 15.5792 79.9026C15.5792 80.7793 16.0105 81.5976 16.6574 82.1237C17.3582 82.8251 19.0293 83.4681 21.6708 84.0526C28.1936 85.5723 32.8296 87.092 35.6867 88.6702C38.5438 90.2484 40.5923 92.1773 41.8321 94.4569C43.1259 96.7949 43.7728 99.4837 43.7728 102.172C43.7728 105.446 42.8564 108.66 41.1852 111.408C39.4063 114.272 36.9266 116.493 34.0156 117.837C30.9428 119.299 27.0615 120.058 22.4255 120.058C14.2315 120.058 8.57127 118.363 5.39074 114.915C2.2102 111.408 0.431259 107.082 0 101.822H0Z" fill="black"/>
<path d="M71.6968 97.7301L84.7424 101.997C84.0416 105.563 82.5861 108.953 80.5915 111.934C78.7587 114.564 76.3328 116.61 73.5836 117.954C70.7804 119.299 67.2225 120 62.9099 120C57.6809 120 53.3683 119.182 50.08 117.545C46.7377 115.908 43.8806 112.986 41.4548 108.836C39.0289 104.686 37.843 99.3667 37.843 92.8787C37.843 84.2279 39.9454 77.5645 44.2041 72.9469C48.4627 68.3293 54.4465 65.9912 62.2091 65.9912C68.3006 65.9912 73.0445 67.3356 76.5485 69.9659C79.9985 72.6546 82.5861 76.7462 84.3111 82.2406L71.1577 85.397C70.8343 84.1695 70.3491 82.942 69.7022 81.8899C68.8936 80.6624 67.8694 79.7272 66.6295 79.0258C65.3896 78.3244 63.9881 78.0321 62.5865 78.0321C59.1903 78.0321 56.6027 79.4934 54.8238 82.4744C53.4761 84.6371 52.7753 88.0857 52.7753 92.7618C52.7753 98.5484 53.5839 102.523 55.2012 104.686C56.8184 106.848 59.0825 107.901 62.0474 107.901C64.9045 107.901 67.0608 107.024 68.5163 105.329C69.9718 103.517 71.0499 101.003 71.6968 97.7301ZM102.154 66.868H117.033V85.1631H133.313V66.868H148.299V119.123H133.313V97.9639H117.033V119.123H102.154V66.868V66.868Z" fill="black"/>
<path d="M146.251 92.9956C146.251 84.4618 148.461 77.7984 152.827 73.0638C157.194 68.3293 163.339 65.9328 171.156 65.9328C179.188 65.9328 185.334 68.2708 189.7 72.9469C194.067 77.623 196.223 84.1695 196.223 92.5865C196.223 98.7238 195.253 103.692 193.366 107.608C191.533 111.466 188.676 114.623 185.172 116.727C181.56 118.889 177.086 120 171.749 120C166.304 120 161.83 119.065 158.272 117.194C154.606 115.207 151.588 112.109 149.593 108.31C147.383 104.218 146.251 99.133 146.251 92.9956ZM161.129 93.0541C161.129 98.3147 162.046 102.114 163.825 104.452C165.603 106.732 168.083 107.901 171.21 107.901C174.39 107.901 176.87 106.79 178.649 104.511C180.428 102.231 181.29 98.1978 181.29 92.3527C181.29 87.4428 180.374 83.8188 178.541 81.5977C176.708 79.3181 174.229 78.2075 171.102 78.2075C168.353 78.0906 165.711 79.3765 163.878 81.6561C162.046 83.9357 161.129 87.735 161.129 93.0541V93.0541ZM211.479 92.9956C211.479 84.4618 213.689 77.7984 218.055 73.0638C222.422 68.3293 228.567 65.9328 236.384 65.9328C244.416 65.9328 250.615 68.2708 254.928 72.9469C259.241 77.623 261.451 84.1695 261.451 92.5865C261.451 98.7238 260.48 103.692 258.594 107.608C256.761 111.466 253.904 114.623 250.4 116.727C246.788 118.889 242.314 120 236.977 120C231.532 120 227.058 119.065 223.5 117.194C219.834 115.207 216.815 112.109 214.821 108.31C212.611 104.218 211.479 99.133 211.479 92.9956V92.9956ZM226.357 93.0541C226.357 98.3147 227.273 102.114 229.052 104.452C230.831 106.732 233.311 107.901 236.438 107.901C239.618 107.901 242.098 106.79 243.877 104.511C245.656 102.231 246.518 98.1978 246.518 92.3527C246.518 87.4428 245.602 83.8188 243.769 81.5977C241.936 79.3181 239.457 78.2075 236.33 78.2075C233.581 78.0906 230.885 79.3765 229.106 81.6561C227.273 83.9357 226.357 87.735 226.357 93.0541V93.0541Z" fill="black"/>
<path d="M259.887 66.868H274.766V106.264H298V119.123H259.834V66.868H259.887Z" fill="black"/>
<path d="M243.488 63.8523C258.468 51.6127 263.087 30.8645 253.805 17.51C244.524 4.15548 224.857 3.25171 209.877 15.4914C194.898 27.731 190.279 48.4792 199.56 61.8337C208.841 75.1882 228.509 76.0919 243.488 63.8523Z" fill="#F4F5F5"/>
<path d="M243.488 63.8522C258.468 51.6126 263.087 30.8644 253.805 17.5099C244.524 4.15541 224.857 3.25164 209.877 15.4913C194.898 27.7309 190.279 48.4791 199.56 61.8336C208.841 75.1881 228.509 76.0919 243.488 63.8522Z" fill="white"/>
<path d="M243.488 63.8522C258.468 51.6126 263.087 30.8644 253.805 17.5099C244.524 4.15541 224.857 3.25164 209.877 15.4913C194.898 27.7309 190.279 48.4791 199.56 61.8336C208.841 75.1881 228.509 76.0919 243.488 63.8522Z" stroke="black" stroke-width="4" stroke-miterlimit="10"/>
<path d="M211.533 35.8304L216.923 31.7389L223.554 41.9678C224.686 43.6044 225.548 45.358 226.195 47.2868C226.573 48.7481 226.465 50.3263 225.926 51.7291C225.225 53.4826 224.093 54.9439 222.584 55.996C220.805 57.3404 219.295 58.1003 218.001 58.3341C216.762 58.5679 215.468 58.3341 214.282 57.7496C212.988 57.0482 211.856 56.0545 210.993 54.7686L215.63 50.0925C216.007 50.7354 216.492 51.32 217.031 51.7876C217.408 52.0798 217.84 52.2552 218.325 52.2552C218.702 52.2552 219.08 52.0798 219.349 51.846C219.888 51.4953 220.266 50.7939 220.212 50.0925C220.05 49.0988 219.673 48.1052 219.08 47.3453L211.533 35.8304V35.8304ZM227.705 42.3185L232.61 38.11C233.149 38.8114 233.85 39.3375 234.605 39.6298C235.683 39.9805 236.815 39.7467 237.732 38.9868C238.378 38.5192 238.918 37.8762 239.133 37.0579C239.457 36.0058 238.918 34.8368 237.947 34.4861C237.785 34.4276 237.624 34.3692 237.462 34.3692C236.815 34.3107 235.683 34.603 234.012 35.3628C231.263 36.5903 229.106 37.0579 227.489 36.8826C225.926 36.7072 224.47 35.8304 223.608 34.3692C222.961 33.3755 222.637 32.2065 222.584 31.0374C222.584 29.6931 222.907 28.3487 223.608 27.2381C224.632 25.6599 225.872 24.3156 227.381 23.2635C229.645 21.5684 231.64 20.7501 233.365 20.7501C235.09 20.7501 236.707 21.6268 238.217 23.4388L233.365 27.5888C232.395 26.2445 230.562 25.9522 229.322 27.0043L229.16 27.1797C228.621 27.5304 228.244 28.0564 228.028 28.6994C227.867 29.167 227.974 29.6931 228.244 30.1022C228.459 30.3945 228.783 30.6283 229.16 30.6283C229.592 30.6867 230.346 30.4529 231.424 29.9269C234.12 28.6994 236.168 27.998 237.57 27.7642C238.756 27.5304 239.996 27.6473 241.128 28.1733C242.152 28.641 243.014 29.4593 243.607 30.4529C244.362 31.622 244.793 33.0248 244.847 34.4861C244.901 36.0058 244.524 37.4671 243.769 38.753C242.799 40.3312 241.559 41.6755 240.103 42.7277C237.139 44.9488 234.713 45.884 232.772 45.5333C230.67 45.1826 228.945 44.0136 227.705 42.3185V42.3185Z" fill="black"/>
</g>
<defs>
<clipPath id="clip0">
<rect width="298" height="120" fill="white"/>
</clipPath>
</defs>
</svg>
